<svg width="19.497223" height="19.497192" viewBox="0 0 19.4972 19.4972" fill="none" xmlns="http://www.w3.org/2000/svg" xmlns:xlink="http://www.w3.org/1999/xlink">
	<desc>
			Created with Pixso.
	</desc>
	<defs/>
	<path id="Vector" d="M18.1046 8.35596L11.1413 8.35596L11.1413 1.39264C11.1413 0.623535 10.5178 0 9.7486 0C8.97946 0 8.35596 0.623535 8.35596 1.39264L8.35596 8.35596L1.39267 8.35596C0.623505 8.35596 0 8.97949 0 9.7486C0 10.5178 0.623505 11.1413 1.39267 11.1413L8.35596 11.1413L8.35596 18.1046C8.35596 18.8737 8.97946 19.4972 9.7486 19.4972C10.5178 19.4972 11.1413 18.8737 11.1413 18.1046L11.1413 11.1413L18.1046 11.1413C18.8737 11.1413 19.4972 10.5178 19.4972 9.7486C19.4972 8.97949 18.8737 8.35596 18.1046 8.35596Z" fill="#FFFFFF" fill-opacity="1.000000" fill-rule="nonzero"/>
</svg>
