<svg width="15.234177" height="14.471680" viewBox="0 0 15.2342 14.4717" fill="none" xmlns="http://www.w3.org/2000/svg" xmlns:xlink="http://www.w3.org/1999/xlink">
	<desc>
			Created with Pixso.
	</desc>
	<defs/>
	<path d="M12.124 9.00232C11.9267 9.19348 11.8361 9.46997 11.881 9.74109L12.5581 13.4882C12.6152 13.8058 12.4812 14.1273 12.2154 14.3108C11.9549 14.5012 11.6084 14.524 11.3243 14.3717L7.95111 12.6124C7.83382 12.5499 7.70358 12.5164 7.5703 12.5126L7.36391 12.5126C7.29231 12.5233 7.22224 12.5461 7.15826 12.5812L3.78433 14.3489C3.61755 14.4326 3.42868 14.4623 3.24359 14.4326C2.79272 14.3474 2.49188 13.9178 2.56577 13.4646L3.24359 9.71747C3.28854 9.44403 3.19791 9.16608 3.00064 8.97186L0.250488 6.30621C0.0204773 6.08301 -0.0595093 5.74792 0.0455933 5.44556C0.147644 5.14398 0.408142 4.92383 0.722687 4.87433L4.50787 4.3252C4.79575 4.29553 5.04861 4.12036 5.1781 3.86139L6.84601 0.441711C6.88562 0.365601 6.93665 0.295532 6.99834 0.236084L7.06688 0.1828C7.10268 0.143188 7.1438 0.110413 7.1895 0.0838013L7.27251 0.0532837L7.40199 0L7.72263 0C8.00899 0.0297241 8.26108 0.20105 8.39284 0.45697L10.0829 3.86139C10.2047 4.11047 10.4416 4.28333 10.715 4.3252L14.5002 4.87433C14.8201 4.92004 15.0874 5.14093 15.1933 5.44556C15.293 5.75098 15.207 6.08606 14.9724 6.30621L12.124 9.00232Z" fill="#F6B76F" fill-opacity="0.500000" fill-rule="nonzero"/>
</svg>
