<svg width="15.234222" height="14.471680" viewBox="0 0 15.2342 14.4717" fill="none" xmlns="http://www.w3.org/2000/svg" xmlns:xlink="http://www.w3.org/1999/xlink">
	<desc>
			Created with Pixso.
	</desc>
	<defs/>
	<path id="Vector" d="M12.124 9.00232C11.9268 9.19348 11.8361 9.46997 11.881 9.74109L12.5581 13.4882C12.6152 13.8058 12.4812 14.1273 12.2154 14.3108C11.9549 14.5012 11.6084 14.524 11.3243 14.3717L7.95114 12.6124C7.83383 12.5499 7.70361 12.5164 7.57031 12.5126L7.36392 12.5126C7.29233 12.5233 7.22226 12.5461 7.15829 12.5812L3.78436 14.3489C3.61755 14.4326 3.42868 14.4623 3.24362 14.4326C2.79272 14.3474 2.49191 13.9178 2.56577 13.4646L3.24362 9.71747C3.28854 9.44403 3.19791 9.16608 3.00067 8.97186L0.250488 6.30621C0.0204773 6.08301 -0.0595093 5.74792 0.0455933 5.44556C0.147644 5.14398 0.408142 4.92383 0.722687 4.87433L4.50787 4.3252C4.79578 4.29553 5.04865 4.12036 5.1781 3.86139L6.84604 0.441711C6.88565 0.365601 6.93668 0.295532 6.99835 0.236084L7.06689 0.1828C7.10269 0.143188 7.14383 0.110413 7.18951 0.0838013L7.27252 0.0532837L7.40201 0L7.72266 0C8.009 0.0297241 8.26111 0.20105 8.39285 0.45697L10.0829 3.86139C10.2047 4.11047 10.4416 4.28333 10.715 4.3252L14.5002 4.87433C14.8201 4.92004 15.0874 5.14093 15.1933 5.44556C15.2931 5.75098 15.207 6.08606 14.9724 6.30621L12.124 9.00232Z" fill="#F6B76F" fill-opacity="1.000000" fill-rule="nonzero"/>
</svg>
