<svg width="10.000000" height="6.000000" viewBox="0 0 10 6" fill="none" xmlns="http://www.w3.org/2000/svg" xmlns:xlink="http://www.w3.org/1999/xlink">
	<desc>
			Created with Pixso.
	</desc>
	<defs/>
	<path id="Vector" d="M4.57764e-05 0.995605C-0.000320435 1.12354 0.0232391 1.25024 0.0689697 1.36597C0.1147 1.48169 0.181442 1.5835 0.264313 1.66431L4.54962 5.80493C4.67741 5.93115 4.83772 6 5.00314 6C5.16858 6 5.32887 5.93115 5.45668 5.80493L9.74199 1.51855C9.88785 1.37305 9.97957 1.16382 9.99698 0.937256C10.0144 0.710449 9.95607 0.484863 9.83484 0.309814C9.71361 0.134521 9.5394 0.0244141 9.35054 0.00366211C9.16168 -0.017334 8.97365 0.0527344 8.82779 0.198242L4.99957 4.03027L1.17137 0.326904C1.06653 0.221924 0.938873 0.155518 0.803497 0.13501C0.668106 0.114502 0.530685 0.140869 0.407455 0.211426C0.284241 0.281738 0.180374 0.392822 0.108185 0.531982C0.0359802 0.670898 -0.00154114 0.831787 4.57764e-05 0.995605Z" fill="#FFFFFF" fill-opacity="1.000000" fill-rule="nonzero"/>
</svg>
